<?xml version="1.0" encoding="UTF-8" standalone="no"?>
<!DOCTYPE svg PUBLIC "-//W3C//DTD SVG 1.1//EN"
 "http://www.w3.org/Graphics/SVG/1.1/DTD/svg11.dtd">
<!-- Generated by graphviz version 2.43.0 (0)
 -->
<!-- Title: application_state_diagram Pages: 1 -->
<svg width="1009pt" height="365pt"
 viewBox="0.00 0.00 1009.20 365.00" xmlns="http://www.w3.org/2000/svg" xmlns:xlink="http://www.w3.org/1999/xlink">
<g id="graph0" class="graph" transform="scale(1 1) rotate(0) translate(4 361)">
<title>application_state_diagram</title>
<g id="a_graph0"><a xlink:href="index.html" xlink:title="NICHE&#10;Networked Information Container for Hypermedia Exploration" target="_parent">
<polygon fill="white" stroke="transparent" points="-4,4 -4,-361 1005.2,-361 1005.2,4 -4,4"/>
<text text-anchor="middle" x="500.6" y="-22.8" font-family="Helvetica,sans-Serif" font-size="14.00">NICHE</text>
<text text-anchor="middle" x="500.6" y="-7.8" font-family="Helvetica,sans-Serif" font-size="14.00">Networked Information Container for Hypermedia Exploration</text>
</a>
</g>
<!-- niche -->
<g id="node1" class="node">
<title>niche</title>
<g id="a_node1"><a xlink:href="docs/semantic.niche.html" xlink:title="&lt;TABLE&gt;" target="_parent">
<polygon fill="none" stroke="black" points="399.7,-357 306.7,-357 306.7,-238 399.7,-238 399.7,-357"/>
<polygon fill="#dddddd" stroke="transparent" points="308.2,-238.5 308.2,-355.5 399.2,-355.5 399.2,-238.5 308.2,-238.5"/>
<polygon fill="none" stroke="black" points="308.2,-238.5 308.2,-355.5 399.2,-355.5 399.2,-238.5 308.2,-238.5"/>
<text text-anchor="start" x="334.2" y="-338.3" font-family="Times,serif" font-size="14.00">niche</text>
<text text-anchor="start" x="341.2" y="-323.3" font-family="Times,serif" font-size="14.00">(id)</text>
<text text-anchor="start" x="333.7" y="-308.3" font-family="Times,serif" font-size="14.00">(title)</text>
<text text-anchor="start" x="326.2" y="-293.3" font-family="Times,serif" font-size="14.00">(status)</text>
<text text-anchor="start" x="314.2" y="-278.3" font-family="Times,serif" font-size="14.00">(metadata)</text>
<text text-anchor="start" x="334.7" y="-263.3" font-family="Times,serif" font-size="14.00">(stig)</text>
<text text-anchor="start" x="324.2" y="-248.3" font-family="Times,serif" font-size="14.00">(pherro)</text>
</a>
</g>
</g>
<!-- niche&#45;&gt;niche -->
<g id="edge1" class="edge">
<title>niche&#45;&gt;niche</title>
<path fill="none" stroke="black" d="M399.87,-317.2C410.19,-315.35 417.7,-308.79 417.7,-297.5 417.7,-290.09 414.46,-284.72 409.32,-281.38"/>
<polygon fill="black" stroke="black" points="410.46,-278.07 399.87,-277.8 407.98,-284.61 410.46,-278.07"/>
<g id="a_edge1_0"><a xlink:href="docs/safe.goNiche.html" xlink:title="&lt;TABLE&gt;">
<text text-anchor="start" x="421.7" y="-304.1" font-family="Times,serif" font-size="13.00">goNiche (safe)</text>
</a>
</g>
<g id="a_edge1_1"><a xlink:href="docs/idempotent.doNicheCull.html" xlink:title="&lt;TABLE&gt;">
<text text-anchor="start" x="421.7" y="-284.1" font-family="Times,serif" font-size="13.00">doNicheCull (idempotent)</text>
</a>
</g>
</g>
<!-- stig -->
<g id="node2" class="node">
<title>stig</title>
<g id="a_node2"><a xlink:href="docs/semantic.stig.html" xlink:title="&lt;TABLE&gt;" target="_parent">
<polygon fill="none" stroke="black" points="139.7,-133.5 46.7,-133.5 46.7,-44.5 139.7,-44.5 139.7,-133.5"/>
<polygon fill="#dddddd" stroke="transparent" points="48.2,-45 48.2,-132 139.2,-132 139.2,-45 48.2,-45"/>
<polygon fill="none" stroke="black" points="48.2,-45 48.2,-132 139.2,-132 139.2,-45 48.2,-45"/>
<text text-anchor="start" x="79.7" y="-114.8" font-family="Times,serif" font-size="14.00">stig</text>
<text text-anchor="start" x="81.2" y="-99.8" font-family="Times,serif" font-size="14.00">(id)</text>
<text text-anchor="start" x="73.7" y="-84.8" font-family="Times,serif" font-size="14.00">(title)</text>
<text text-anchor="start" x="66.2" y="-69.8" font-family="Times,serif" font-size="14.00">(status)</text>
<text text-anchor="start" x="54.2" y="-54.8" font-family="Times,serif" font-size="14.00">(metadata)</text>
</a>
</g>
</g>
<!-- niche&#45;&gt;stig -->
<g id="edge2" class="edge">
<title>niche&#45;&gt;stig</title>
<path fill="none" stroke="black" d="M306.61,-293.09C221.83,-285.82 47.71,-265.59 11.2,-220 -6.03,-198.49 -0.52,-182.94 11.2,-158 17.4,-144.81 27.55,-133.29 38.64,-123.67"/>
<polygon fill="black" stroke="black" points="40.89,-126.35 46.42,-117.32 36.46,-120.93 40.89,-126.35"/>
<g id="a_edge2_2"><a xlink:href="docs/safe.goStigList.html" xlink:title="&lt;TABLE&gt;">
<text text-anchor="start" x="15.2" y="-205.6" font-family="Times,serif" font-size="13.00">goStigList (safe)</text>
</a>
</g>
<g id="a_edge2_3"><a xlink:href="docs/safe.goStigFilter.html" xlink:title="&lt;TABLE&gt;">
<text text-anchor="start" x="15.2" y="-185.6" font-family="Times,serif" font-size="13.00">goStigFilter (safe)</text>
</a>
</g>
<g id="a_edge2_4"><a xlink:href="docs/idempotent.doStigCreate.html" xlink:title="&lt;TABLE&gt;">
<text text-anchor="start" x="15.2" y="-165.6" font-family="Times,serif" font-size="13.00">doStigCreate (idempotent)</text>
</a>
</g>
</g>
<!-- pherro -->
<g id="node3" class="node">
<title>pherro</title>
<g id="a_node3"><a xlink:href="docs/semantic.pherro.html" xlink:title="&lt;TABLE&gt;" target="_parent">
<polygon fill="none" stroke="black" points="672.7,-133.5 579.7,-133.5 579.7,-44.5 672.7,-44.5 672.7,-133.5"/>
<polygon fill="#dddddd" stroke="transparent" points="581.2,-45 581.2,-132 672.2,-132 672.2,-45 581.2,-45"/>
<polygon fill="none" stroke="black" points="581.2,-45 581.2,-132 672.2,-132 672.2,-45 581.2,-45"/>
<text text-anchor="start" x="602.2" y="-114.8" font-family="Times,serif" font-size="14.00">pherro</text>
<text text-anchor="start" x="614.2" y="-99.8" font-family="Times,serif" font-size="14.00">(id)</text>
<text text-anchor="start" x="606.7" y="-84.8" font-family="Times,serif" font-size="14.00">(title)</text>
<text text-anchor="start" x="599.2" y="-69.8" font-family="Times,serif" font-size="14.00">(status)</text>
<text text-anchor="start" x="587.2" y="-54.8" font-family="Times,serif" font-size="14.00">(metadata)</text>
</a>
</g>
</g>
<!-- niche&#45;&gt;pherro -->
<g id="edge3" class="edge">
<title>niche&#45;&gt;pherro</title>
<g id="a_edge3"><a xlink:href="docs/safe.goPherroList.html" xlink:title="goPherroList, collection pherro (safe)" target="_parent">
<path fill="none" stroke="black" d="M399.82,-274.42C423.07,-261.39 450.04,-242.94 468.2,-220 486.44,-196.95 471.61,-179.91 491.2,-158 512.17,-134.55 543.1,-118.16 570.06,-107.35"/>
<polygon fill="black" stroke="black" points="571.34,-110.61 579.41,-103.75 568.82,-104.07 571.34,-110.61"/>
</a>
</g>
<g id="a_edge3&#45;label"><a xlink:href="docs/safe.goPherroList.html" xlink:title="goPherroList, collection pherro (safe)" target="_parent">
<text text-anchor="middle" x="615.7" y="-185.6" font-family="Times,serif" font-size="13.00">goPherroList, collection pherro (safe)</text>
</a>
</g>
</g>
<!-- stig&#45;&gt;niche -->
<g id="edge5" class="edge">
<title>stig&#45;&gt;niche</title>
<g id="a_edge5"><a xlink:href="docs/safe.goNiche.html" xlink:title="goNiche, home collection niche (safe)" target="_parent">
<path fill="none" stroke="black" d="M139.94,-112.75C159.23,-124.09 180.48,-139.39 195.2,-158 213.43,-181.05 199.15,-197.62 218.2,-220 239.13,-244.59 270.06,-262.92 297.03,-275.47"/>
<polygon fill="black" stroke="black" points="295.83,-278.76 306.38,-279.67 298.69,-272.38 295.83,-278.76"/>
</a>
</g>
<g id="a_edge5&#45;label"><a xlink:href="docs/safe.goNiche.html" xlink:title="goNiche, home collection niche (safe)" target="_parent">
<text text-anchor="middle" x="343.2" y="-185.6" font-family="Times,serif" font-size="13.00">goNiche, home collection niche (safe)</text>
</a>
</g>
</g>
<!-- stig&#45;&gt;stig -->
<g id="edge4" class="edge">
<title>stig&#45;&gt;stig</title>
<path fill="none" stroke="black" d="M139.87,-107.25C150.19,-105.53 157.7,-99.45 157.7,-89 157.7,-82.14 154.46,-77.17 149.32,-74.07"/>
<polygon fill="black" stroke="black" points="150.47,-70.76 139.87,-70.75 148.15,-77.37 150.47,-70.76"/>
<g id="a_edge4_5"><a xlink:href="docs/safe.goStigRead.html" xlink:title="&lt;TABLE&gt;">
<text text-anchor="start" x="161.7" y="-125.6" font-family="Times,serif" font-size="13.00">goStigRead (safe)</text>
</a>
</g>
<g id="a_edge4_6"><a xlink:href="docs/safe.goStigList.html" xlink:title="&lt;TABLE&gt;">
<text text-anchor="start" x="161.7" y="-105.6" font-family="Times,serif" font-size="13.00">goStigList (safe)</text>
</a>
</g>
<g id="a_edge4_7"><a xlink:href="docs/safe.goStigFilter.html" xlink:title="&lt;TABLE&gt;">
<text text-anchor="start" x="161.7" y="-85.6" font-family="Times,serif" font-size="13.00">goStigFilter (safe)</text>
</a>
</g>
<g id="a_edge4_8"><a xlink:href="docs/idempotent.doStigStatus.html" xlink:title="&lt;TABLE&gt;">
<text text-anchor="start" x="161.7" y="-65.6" font-family="Times,serif" font-size="13.00">doStigStatus (idempotent)</text>
</a>
</g>
<g id="a_edge4_9"><a xlink:href="docs/idempotent.doStigCreate.html" xlink:title="&lt;TABLE&gt;">
<text text-anchor="start" x="161.7" y="-45.6" font-family="Times,serif" font-size="13.00">doStigCreate (idempotent)</text>
</a>
</g>
</g>
<!-- pherro&#45;&gt;niche -->
<g id="edge6" class="edge">
<title>pherro&#45;&gt;niche</title>
<g id="a_edge6"><a xlink:href="docs/safe.goNiche.html" xlink:title="goNiche, home collection niche (safe)" target="_parent">
<path fill="none" stroke="black" d="M672.86,-105.01C697.58,-115.62 725.75,-132.55 740.2,-158 753.81,-181.96 757.69,-198.71 740.2,-220 699.09,-270.03 507.53,-287.89 410.24,-293.81"/>
<polygon fill="black" stroke="black" points="409.77,-290.33 399.99,-294.41 410.18,-297.32 409.77,-290.33"/>
</a>
</g>
<g id="a_edge6&#45;label"><a xlink:href="docs/safe.goNiche.html" xlink:title="goNiche, home collection niche (safe)" target="_parent">
<text text-anchor="middle" x="876.2" y="-185.6" font-family="Times,serif" font-size="13.00">goNiche, home collection niche (safe)</text>
</a>
</g>
</g>
<!-- pherro&#45;&gt;pherro -->
<g id="edge7" class="edge">
<title>pherro&#45;&gt;pherro</title>
<g id="a_edge7"><a xlink:href="docs/safe.goPherroList.html" xlink:title="goPherroList, collection pherro (safe)" target="_parent">
<path fill="none" stroke="black" d="M672.87,-107.25C683.19,-105.53 690.7,-99.45 690.7,-89 690.7,-82.14 687.46,-77.17 682.32,-74.07"/>
<polygon fill="black" stroke="black" points="683.47,-70.76 672.87,-70.75 681.15,-77.37 683.47,-70.76"/>
</a>
</g>
<g id="a_edge7&#45;label"><a xlink:href="docs/safe.goPherroList.html" xlink:title="goPherroList, collection pherro (safe)" target="_parent">
<text text-anchor="middle" x="815.2" y="-85.6" font-family="Times,serif" font-size="13.00">goPherroList, collection pherro (safe)</text>
</a>
</g>
</g>
</g>
</svg>
